<mxfile host="app.diagrams.net" modified="2023-08-31T14:57:23.461Z" agent="Mozilla/5.0 (Windows NT 10.0; Win64; x64) AppleWebKit/537.36 (KHTML, like Gecko) Chrome/116.0.0.0 Safari/537.36" version="21.6.9" etag="uZkuZTStf3b_QTRxux6j" type="github">
  <diagram name="PÃ¡gina-1" id="COBsQuEBFOiIZyjL9n5W">
    <mxGraphModel>
      <root>
        <mxCell id="0" />
        <mxCell id="1" parent="0" />
      </root>
    </mxGraphModel>
  </diagram>
</mxfile>
